<?xml version="1.0" standalone="no"?><!DOCTYPE svg PUBLIC "-//W3C//DTD SVG 1.1//EN" "http://www.w3.org/Graphics/SVG/1.1/DTD/svg11.dtd"><svg t="1692310586007" class="icon" viewBox="0 0 1024 1024" version="1.1" xmlns="http://www.w3.org/2000/svg" p-id="7442" xmlns:xlink="http://www.w3.org/1999/xlink" width="200" height="200"><path d="M191.311 157.232s18.131 78.206 30.146 109.227c15.947 41.287 12.67 49.152 30.146 88.692S267.55 439.037 359.3 478.796s251.876 0 251.876 0 12.67-66.628-22.283-129.98-58.545-131.509-159.908-148.986-195.297-32.768-212.337-34.953c-12.67-1.311-25.341-7.646-25.341-7.646z" fill="#7C6BF7" p-id="7443"></path><path d="M543.021 432.919s-140.902-23.811-215.395-3.277c-39.103 10.923-90.221 71.216-118.838 133.038S140.63 718.001 140.63 718.001s50.682-23.811 87.163-19.006c36.482 4.806 106.169 28.618 155.321 22.283s133.038-52.21 172.578-123.645c39.54-71.216 53.958-123.645 45.875-137.844-7.865-14.199-58.545-26.869-58.545-26.869z" fill="#6D5BF4" p-id="7444"></path><path d="M603.969 492.339s-106.823 5.461-129.106 54.613-34.953 144.179-30.146 169.52 26.869 71.216 41.287 99.834c14.199 28.618 44.346 106.169 45.875 117.31 1.53 11.141 0 22.283 0 22.283s53.958-28.618 83.886-68.158c30.146-39.54 76.021-95.027 90.221-159.908s-1.53-123.645-17.476-144.179-42.817-80.828-53.958-85.634-30.583-5.68-30.583-5.68z" fill="#6853F9" p-id="7445"></path><path d="M664.917 402.773s71.216-28.618 102.892-20.534c31.676 7.865 72.963 34.953 77.551 66.628 4.806 31.676 9.612 93.498 41.287 125.173l31.676 31.676s-34.953 30.146-53.958 39.54c-19.006 9.612-82.357 52.21-129.98 39.54s-85.415-60.948-102.892-90.221c-19.006-31.676-44.346-115.562-33.205-128.233 11.141-12.889 66.628-63.57 66.628-63.57z" fill="#705EEF" p-id="7446"></path><path d="M560.278 467.654s-88.692-174.325-82.357-209.06c6.335-34.953 36.482-58.545 61.822-71.216s87.163-53.958 109.227-72.963c22.283-19.006 45.875-45.875 45.875-45.875s20.534 45.875 34.953 74.493 38.011 112.503 39.54 161.655c1.53 49.152 3.277 90.221-3.277 98.304-6.335 7.865-96.557 96.557-114.033 93.498s-91.75-28.836-91.75-28.836z" fill="#6C6CEA" p-id="7447"></path><path d="M534.938 461.318s4.806-44.346 19.006-50.682c14.199-6.335 15.947 0 15.947 0s3.277 6.335-1.53 14.199-20.534 39.54-23.811 41.287c-3.277 1.53-9.612-4.806-9.612-4.806z" fill="#FFFFFF" p-id="7448"></path><path d="M534.938 466.125s-17.476-1.53-25.341-9.612c-5.68-5.68-15.947-22.283-14.199-28.618 1.53-6.335 7.865-11.141 12.67-7.865 4.806 3.277 12.67 20.534 19.006 25.341 6.335 4.806 12.67 12.67 12.67 15.947s-4.806 4.806-4.806 4.806z" fill="#FFFFFF" p-id="7449"></path><path d="M493.869 499.33s-11.141 0-11.141-6.335 4.806-11.141 19.006-19.006c14.199-7.865 31.676-17.476 34.953-14.199s3.277 4.806-1.53 11.141c-4.806 6.335-21.408 20.753-25.341 23.811-6.554 4.588-15.947 4.588-15.947 4.588z" fill="#FFFFFF" p-id="7450"></path><path d="M531.879 466.125s-3.277 6.335-3.277 15.947 0.219 22.064 6.335 36.482c4.806 11.141 11.141 11.796 15.947 12.67 7.865 1.53 11.141-3.277 12.67-6.335 1.53-3.277-1.53-9.612-1.53-9.612s0 7.865-3.277 6.335-11.141-12.67-11.141-26.869c0-11.141-1.53-19.006-3.277-23.811-1.53-4.806-4.588-7.646-6.335-7.865-1.747-0.437-6.116 3.058-6.116 3.058z" fill="#FFFFFF" p-id="7451"></path><path d="M541.273 470.931s11.141 12.67 20.534 15.947c9.612 3.277 21.845 5.68 30.146 1.53 6.335-3.277 9.612-6.335 6.335-12.67s-7.865-4.806-12.67-4.806c-4.806 0-15.947-3.277-23.811-6.335-7.865-3.277-15.51-3.932-19.006-3.277-6.116 1.53-1.53 9.612-1.53 9.612z" fill="#FFFFFF" p-id="7452"></path></svg>